<svg width="240.358887" height="216.944946" viewBox="0 0 240.359 216.945" fill="none" xmlns="http://www.w3.org/2000/svg" xmlns:xlink="http://www.w3.org/1999/xlink">
	<desc>
			Created with Pixso.
	</desc>
	<defs/>
	<path id="path" d="M28.23 190.73L28.23 10.57C28.23 5.56 32.3 1.49 37.31 1.49L203.05 1.49C208.06 1.49 212.12 5.56 212.12 10.57L212.12 190.73L28.23 190.73Z" fill="#63BCE7" fill-opacity="1.000000" fill-rule="nonzero"/>
	<path id="path" d="M203.05 1.5L188.05 1.5C193.06 1.5 197.12 5.56 197.12 10.57L197.12 190.73L212.12 190.73L212.12 10.57C212.12 5.56 208.06 1.5 203.05 1.5Z" fill="#63E2E7" fill-opacity="1.000000" fill-rule="nonzero"/>
	<path id="path" d="M52.31 1.5L37.31 1.5C32.29 1.5 28.23 5.56 28.23 10.57L28.23 190.73L43.23 190.73L43.23 10.57C43.23 5.56 47.29 1.5 52.31 1.5Z" fill="#6377E7" fill-opacity="1.000000" fill-rule="nonzero"/>
	<path id="path" d="M212.12 166.03L52.94 166.03C39.29 166.03 28.23 177.09 28.23 190.73C28.23 204.38 39.29 215.44 52.94 215.44L212.12 215.44L212.12 166.03Z" fill="#CECECE" fill-opacity="1.000000" fill-rule="nonzero"/>
	<rect id="rect" x="197.122803" y="166.031982" width="15.000000" height="49.414001" fill="#E2E2E2" fill-opacity="1.000000"/>
	<path id="path" d="M43.23 190.73C43.23 177.09 54.29 166.03 67.94 166.03L52.94 166.03C39.29 166.03 28.23 177.09 28.23 190.73C28.23 204.38 39.29 215.44 52.94 215.44L67.94 215.44C54.29 215.44 43.23 204.38 43.23 190.73Z" fill="#AFAFAF" fill-opacity="1.000000" fill-rule="nonzero"/>
	<path id="polygon" d="M102.69 215.44L88 205.44L73.31 215.44L73.31 183.22L102.69 183.22L102.69 215.44Z" fill="#F46275" fill-opacity="1.000000" fill-rule="nonzero"/>
	<path id="polygon" d="M163.46 140.95L120.18 110.95L76.89 140.95L76.89 1.5L163.46 1.5L163.46 140.95Z" fill="#F46275" fill-opacity="1.000000" fill-rule="nonzero"/>
	<path id="path" d="M123.1 34.02L128.81 45.59C129.28 46.55 130.2 47.22 131.27 47.37L144.03 49.23C146.71 49.62 147.78 52.9 145.84 54.79L136.6 63.8C135.83 64.54 135.48 65.62 135.67 66.68L137.85 79.4C138.3 82.06 135.51 84.09 133.11 82.84L121.69 76.83C120.74 76.33 119.61 76.33 118.66 76.83L107.24 82.84C104.85 84.09 102.05 82.06 102.51 79.4L104.69 66.68C104.87 65.62 104.52 64.54 103.75 63.8L94.51 54.79C92.57 52.9 93.64 49.61 96.32 49.23L109.09 47.37C110.15 47.22 111.07 46.55 111.54 45.59L117.25 34.02C118.45 31.59 121.9 31.59 123.1 34.02Z" fill="#F8AF23" fill-opacity="1.000000" fill-rule="nonzero"/>
	<path id="path" d="M1.5 216.94L52.94 216.94L212.12 216.94L238.85 216.94C239.68 216.94 240.35 216.27 240.35 215.44C240.35 214.61 239.68 213.94 238.85 213.94L213.62 213.94L213.62 190.73L213.62 166.03L213.62 10.57C213.62 4.74 208.88 0 203.04 0L163.46 0L76.89 0L37.31 0C31.47 0 26.73 4.74 26.73 10.57L26.73 190.73C26.73 200.8 32.44 209.55 40.78 213.94L1.5 213.94C0.67 213.94 0 214.61 0 215.44C0 216.27 0.67 216.94 1.5 216.94ZM210.62 184.72L210.62 190.73L210.62 196.75L104.19 196.75L104.19 184.72L210.62 184.72ZM101.19 212.6L88.85 204.2C88.59 204.03 88.3 203.94 88 203.94C87.71 203.94 87.41 204.03 87.16 204.2L74.82 212.6L74.82 184.72L101.19 184.72L101.19 212.6ZM88 207.26L97.82 213.94L78.18 213.94L88 207.26ZM104.19 213.94L104.19 199.75L210.62 199.75L210.62 213.94L104.19 213.94ZM161.96 3L161.96 138.09L121.03 109.72C120.77 109.54 120.47 109.45 120.18 109.45C119.88 109.45 119.58 109.54 119.32 109.72L78.39 138.09L78.39 3L161.96 3ZM29.73 10.57C29.73 6.39 33.13 3 37.31 3L75.39 3L75.39 140.95C75.39 141.51 75.71 142.02 76.2 142.28C76.69 142.54 77.29 142.5 77.75 142.19L120.18 112.78L162.6 142.19C162.86 142.36 163.16 142.45 163.46 142.45C163.69 142.45 163.93 142.4 164.15 142.28C164.65 142.02 164.96 141.51 164.96 140.95L164.96 3L203.04 3C207.22 3 210.62 6.39 210.62 10.57L210.62 164.53L52.94 164.53C42.87 164.53 34.12 170.23 29.73 178.58L29.73 10.57ZM29.73 190.73C29.73 177.94 40.14 167.53 52.94 167.53L210.62 167.53L210.62 181.72L102.69 181.72L73.31 181.72L56.89 181.72C56.06 181.72 55.39 182.39 55.39 183.22C55.39 184.05 56.06 184.72 56.89 184.72L71.81 184.72L71.81 196.75L56.89 196.75C56.06 196.75 55.39 197.42 55.39 198.25C55.39 199.08 56.06 199.75 56.89 199.75L71.81 199.75L71.81 213.94L52.94 213.94C40.14 213.94 29.73 203.53 29.73 190.73Z" fill="#3F3679" fill-opacity="1.000000" fill-rule="nonzero"/>
	<path id="path" d="M102.7 64.87C103.12 65.27 103.31 65.86 103.21 66.43L101.03 79.15C100.72 80.95 101.44 82.73 102.92 83.8C103.76 84.41 104.73 84.72 105.71 84.72C106.47 84.72 107.23 84.53 107.94 84.17L119.36 78.16C119.87 77.89 120.48 77.89 121 78.16L132.41 84.16C134.03 85.02 135.95 84.88 137.43 83.8C138.91 82.73 139.63 80.95 139.32 79.15L137.14 66.43C137.04 65.86 137.23 65.28 137.65 64.87L146.89 55.87C148.2 54.59 148.66 52.72 148.09 50.98C147.53 49.25 146.06 48.01 144.25 47.74L131.48 45.89C130.91 45.8 130.41 45.45 130.15 44.92L124.45 33.35C123.64 31.72 122 30.7 120.18 30.7C118.35 30.7 116.71 31.72 115.91 33.35L110.2 44.92C109.94 45.44 109.44 45.8 108.87 45.89L96.1 47.74C94.29 48.01 92.82 49.25 92.26 50.98C91.69 52.72 92.15 54.59 93.46 55.86L102.7 64.87ZM95.11 51.91C95.32 51.26 95.85 50.81 96.53 50.71L109.3 48.86C110.85 48.63 112.19 47.66 112.89 46.25L118.6 34.68C118.9 34.07 119.49 33.7 120.18 33.7C120.86 33.7 121.45 34.07 121.76 34.68L127.47 46.25C128.16 47.66 129.5 48.63 131.05 48.86L143.82 50.71C144.5 50.81 145.03 51.26 145.24 51.91C145.45 52.56 145.29 53.24 144.8 53.72L135.56 62.72C134.43 63.82 133.92 65.39 134.19 66.94L136.37 79.65C136.48 80.33 136.22 80.97 135.67 81.38C135.11 81.78 134.42 81.83 133.81 81.51L122.39 75.51C121.01 74.78 119.35 74.78 117.96 75.51L106.54 81.51C105.94 81.83 105.24 81.78 104.69 81.38C104.13 80.98 103.87 80.33 103.99 79.65L106.17 66.94C106.43 65.39 105.92 63.82 104.8 62.72L95.56 53.72C95.07 53.24 94.9 52.56 95.11 51.91Z" fill="#3F3679" fill-opacity="1.000000" fill-rule="nonzero"/>
</svg>
