<svg width="50.000000" height="50.000000" viewBox="0 0 50 50" fill="none" xmlns="http://www.w3.org/2000/svg" xmlns:xlink="http://www.w3.org/1999/xlink">
	<desc>
			Created with Pixso.
	</desc>
	<defs>
		<clipPath id="clip51_1">
			<rect id="bitly" width="50.000000" height="50.000000" fill="white" fill-opacity="0"/>
		</clipPath>
	</defs>
	<g clip-path="url(#clip51_1)">
		<mask id="mask51_4" mask-type="alpha" maskUnits="userSpaceOnUse" x="0.000000" y="0.000000" width="50.000000" height="50.000000">
			<path id="path" d="M0 0L50 0L50 50L0 50L0 0Z" fill="#000000" fill-opacity="1.000000" fill-rule="nonzero"/>
		</mask>
		<g mask="url(#mask51_4)">
			<path id="path" d="M8.32 43.73C2.77 38.38 0 32.27 0 25.4C0 10.73 11.37 0 24.91 0C38.59 0 50 10.73 50 25.4C50 39.27 37.76 50 27.08 50C22.65 50 19.46 48.32 17.79 45.72C17.19 44.79 16.67 43.31 16.56 42.41C16.49 41.8 16.49 39.81 16.56 36.43L16.56 28.86C16.62 24.3 17.11 18.25 15.3 19.65C14.76 20.17 14.55 20.7 13.4 20.75C12.25 20.67 11.92 19.44 12.11 18.77C12.8 16.39 14.8 14.49 17.99 14.83C21.18 15.17 22.41 17.29 22.49 20.14C22.49 23.58 22.41 27.34 22.41 27.78L22.41 28.15C22.42 28.49 22.37 28.77 22.78 28.54L23.85 27.81C26.03 26.16 31.39 24.41 35.54 28.54C37.13 30.11 39.07 33.52 37.94 38.79C37.76 39.34 37.9 39.41 38.38 39.01C38.77 38.62 44.14 33.78 44.14 24.63C44.14 14.37 35.14 5.81 24.91 5.81C15.99 5.81 5.78 12.91 5.78 25.4C5.78 29.28 7.17 34.08 10.58 37.83C11.14 38.47 11.56 38.92 11.85 39.18C13.4 40.51 13.6 42.19 12.57 43.42C11.24 44.75 9.82 44.86 8.32 43.73ZM27.14 44.3C31.78 44.23 32.52 39.41 32.55 36.69C32.55 32.68 30.51 31.25 27.44 31.88C24.98 32.38 22.49 34.95 22.21 38.51C22.15 39.34 22.14 40.18 22.19 41.01C22.31 43.45 24.35 44.35 27.14 44.3Z" fill="#F36600" fill-opacity="1.000000" fill-rule="nonzero"/>
		</g>
	</g>
</svg>
